<?xml version="1.0" encoding="UTF-8"?>
<svg id="Livello_2" data-name="Livello 2" xmlns="http://www.w3.org/2000/svg" viewBox="0 0 135.49 210.67">
  <defs>
    <style>
      .cls-1 {
        fill: #21844a;
      }
    </style>
  </defs>
  <g id="Livello_1-2" data-name="Livello 1">
    <path class="cls-1" d="M83.82,40.95c0-5.46,4.43-9.89,9.89-9.89,4.96,0,9.03,3.67,9.74,8.44-.02,.49,0,.95,0,1.45h0V119.89c.77,8.84,8.59,15.66,17.85,14.6,8.25-.94,14.2-8.42,14.2-16.72V40.98c0-.34-.08-.66-.1-.99C134.75,17.8,116.61,0,94.27,0c-10.07,0-19.28,3.63-26.44,9.63-.05,.04-.12,.04-.16,0C60.51,3.63,51.3,0,41.22,0,18.48,0,.04,18.44,.04,41.18c0,.18,.02,.35,.03,.52C.06,41.93,0,42.15,0,42.38V117.69c0,8.48,6.19,16.1,14.63,16.84,9.55,.84,17.56-6.66,17.56-16.03V39.38c.81-5.02,5.32-8.79,10.67-8.28,5.18,.49,8.93,5.23,8.93,10.43v39.44s0,46.56,0,46.56v12.7c0,.07-.06,.14-.14,.14H30.79c-8.45,0-16.04,6.17-16.78,14.58-.84,9.52,6.64,17.5,15.98,17.5h21.69c.07,0,.14,.06,.14,.14v22.51c0,8.6,6.98,15.58,15.58,15.58h.84c8.6,0,15.58-6.98,15.58-15.58v-22.51c0-.07,.06-.14,.14-.14h21.68c8.45,0,16.04-6.17,16.78-14.58,.84-9.52-6.64-17.5-15.98-17.5h-22.49c-.07,0-.14-.06-.14-.14v-59.23s.02,0,.02,0V41.58"/>
  </g>
</svg>