<?xml version="1.0" encoding="UTF-8"?>
<svg id="Livello_2" data-name="Livello 2" xmlns="http://www.w3.org/2000/svg" viewBox="0 0 139.83 192.56">
  <defs>
    <style>
      .cls-1 {
        fill: #21844a;
      }
    </style>
  </defs>
  <g id="Livello_1-2" data-name="Livello 1">
    <g>
      <g>
        <path class="cls-1" d="M7.68,177.57c1.76,0,3.25,.41,4.48,1.22,1.23,.81,1.84,1.8,1.84,2.96,0,.62-.22,1.13-.65,1.55-.44,.42-.97,.62-1.61,.62-.5,0-.89-.1-1.16-.29-.19-.15-.43-.48-.72-.99-.52-.91-1.23-1.36-2.12-1.36-1.76,0-2.64,1.26-2.64,3.77s.86,3.83,2.58,3.83c.54,0,.96-.1,1.26-.32,.3-.21,.6-.61,.91-1.19,.52-.99,1.23-1.48,2.12-1.48,.64,0,1.15,.21,1.55,.62,.4,.42,.59,.96,.59,1.64,0,1.26-.62,2.31-1.87,3.15-1.25,.84-2.8,1.26-4.66,1.26-2.28,0-4.1-.63-5.45-1.89-1.43-1.33-2.14-3.17-2.14-5.51,0-2.47,.71-4.36,2.14-5.65,1.43-1.29,3.28-1.94,5.54-1.94Z"/>
        <path class="cls-1" d="M28.73,186.35h-6.9c.02,.77,.25,1.39,.71,1.84,.45,.45,1.04,.68,1.75,.68s1.39-.31,2.09-.93c.7-.62,1.3-.93,1.8-.93,.6,0,1.12,.19,1.56,.57,.45,.38,.67,.82,.67,1.32,0,.89-.58,1.71-1.74,2.46-1.22,.79-2.72,1.19-4.49,1.19-2.32,0-4.14-.67-5.46-2.02-1.33-1.34-1.99-3.19-1.99-5.52s.65-4.17,1.96-5.48,3.12-1.97,5.44-1.97,3.93,.66,5.19,1.97c1.26,1.31,1.89,2.86,1.89,4.64,0,1.12-.36,1.81-1.07,2.06-.25,.08-.71,.12-1.39,.12Zm-6.96-2.84h4.44c-.1-1.43-.83-2.15-2.2-2.15-1.27,0-2.02,.72-2.23,2.15Z"/>
        <path class="cls-1" d="M34.44,188.06v-7.05c0-1.16,.19-1.98,.58-2.46,.46-.56,1.08-.84,1.85-.84,1.24,0,2.04,.77,2.41,2.32,.79-1.55,1.9-2.32,3.33-2.32,.71,0,1.3,.23,1.74,.68,.44,.45,.67,1.05,.67,1.78,0,.89-.29,1.52-.87,1.88-.29,.17-.53,.28-.73,.32-.19,.04-.76,.08-1.71,.12-.83,.04-1.4,.27-1.71,.7-.31,.42-.46,1.19-.46,2.29v2.58c0,1.51-.12,2.52-.35,3.04-.39,.87-1.11,1.3-2.17,1.3-.45,0-.88-.13-1.32-.38-.44-.25-.74-.56-.91-.93-.23-.5-.35-1.52-.35-3.04Z"/>
        <path class="cls-1" d="M54.8,177.57c1.76,0,3.25,.41,4.48,1.22,1.23,.81,1.84,1.8,1.84,2.96,0,.62-.22,1.13-.65,1.55-.44,.42-.97,.62-1.61,.62-.5,0-.89-.1-1.16-.29-.19-.15-.43-.48-.72-.99-.52-.91-1.23-1.36-2.12-1.36-1.76,0-2.64,1.26-2.64,3.77s.86,3.83,2.58,3.83c.54,0,.96-.1,1.26-.32,.3-.21,.6-.61,.91-1.19,.52-.99,1.23-1.48,2.12-1.48,.64,0,1.15,.21,1.55,.62,.4,.42,.59,.96,.59,1.64,0,1.26-.62,2.31-1.87,3.15-1.25,.84-2.8,1.26-4.66,1.26-2.28,0-4.1-.63-5.45-1.89-1.43-1.33-2.14-3.17-2.14-5.51,0-2.47,.71-4.36,2.14-5.65,1.43-1.29,3.28-1.94,5.54-1.94Z"/>
        <path class="cls-1" d="M78.05,183.02v5.89c0,1.24-.1,2.06-.29,2.46-.35,.7-1.01,1.04-2,1.04-1.08,0-1.87-.62-2.38-1.86-1.22,1.24-2.76,1.86-4.61,1.86-1.49,0-2.65-.38-3.48-1.13s-1.25-1.81-1.25-3.16,.4-2.37,1.2-3.12,2.1-1.28,3.9-1.61l2.06-.38c.7-.13,1.09-.21,1.19-.23,.42-.17,.64-.45,.64-.84,0-.73-.57-1.1-1.71-1.1-.58,0-1.03,.1-1.35,.29s-.67,.54-1.06,1.04c-.52,.68-1.12,1.02-1.8,1.02-.62,0-1.15-.19-1.61-.58-.46-.39-.68-.85-.68-1.39,0-1.14,.66-2.06,1.97-2.75,1.14-.6,2.62-.9,4.44-.9,4.54,0,6.81,1.82,6.81,5.45Zm-4.87,2.61l-1.48,.46-1.85,.58c-.23,.08-.43,.19-.58,.33-.16,.15-.23,.35-.23,.62,0,.73,.43,1.1,1.3,1.1,.97,0,1.91-.4,2.84-1.19v-1.91Z"/>
        <path class="cls-1" d="M82.05,188.09v-6.78c0-1.2,.13-2.04,.41-2.52,.41-.71,1.05-1.07,1.94-1.07,1.38,0,2.19,.74,2.41,2.22,.01,.08,.11,.11,.16,.05,1.17-1.51,2.61-2.26,4.31-2.26,1.79,0,3.11,.77,3.99,2.3,.03,.06,.12,.06,.15,0,.98-1.54,2.44-2.31,4.36-2.31,2.98,0,4.46,1.66,4.46,4.99v5.39c0,1.51-.12,2.51-.35,3.02-.41,.87-1.13,1.3-2.18,1.3-.46,0-.91-.13-1.33-.38-.43-.25-.72-.56-.9-.93-.23-.5-.35-1.51-.35-3.02v-3.33c0-1.08-.08-1.81-.23-2.18-.25-.58-.72-.87-1.42-.87-.62,0-1.09,.25-1.42,.75-.23,.37-.35,1.19-.35,2.46v3.13c0,1.55-.12,2.56-.35,3.04-.17,.37-.48,.68-.91,.93-.43,.25-.88,.38-1.32,.38s-.88-.13-1.3-.38c-.43-.25-.72-.56-.9-.93-.23-.5-.35-1.52-.35-3.04v-3.57c0-1.03-.12-1.74-.35-2.13-.23-.4-.66-.59-1.28-.59-1.18,0-1.77,.91-1.77,2.73v3.59c0,1.51-.12,2.51-.35,3.02-.17,.37-.48,.68-.91,.93-.43,.25-.89,.38-1.38,.38-1.06,0-1.78-.44-2.14-1.3-.23-.56-.35-1.57-.35-3.02Z"/>
        <path class="cls-1" d="M119.66,186.35h-6.9c.02,.77,.25,1.39,.71,1.84,.45,.45,1.04,.68,1.75,.68s1.39-.31,2.09-.93c.7-.62,1.3-.93,1.8-.93,.6,0,1.12,.19,1.56,.57,.45,.38,.67,.82,.67,1.32,0,.89-.58,1.71-1.74,2.46-1.22,.79-2.72,1.19-4.49,1.19-2.32,0-4.14-.67-5.46-2.02-1.33-1.34-1.99-3.19-1.99-5.52s.65-4.17,1.96-5.48,3.12-1.97,5.44-1.97,3.93,.66,5.19,1.97c1.26,1.31,1.89,2.86,1.89,4.64,0,1.12-.36,1.81-1.07,2.06-.25,.08-.71,.12-1.39,.12Zm-6.96-2.84h4.44c-.1-1.43-.83-2.15-2.2-2.15-1.27,0-2.02,.72-2.23,2.15Z"/>
        <path class="cls-1" d="M139.83,176.61v12.35c0,1.04-.13,1.81-.41,2.29-.44,.77-1.16,1.16-2.14,1.16-1.3,0-2.15-.62-2.58-1.86-1.02,1.24-2.34,1.86-3.94,1.86-1.78,0-3.22-.66-4.33-1.99-1.11-1.32-1.67-3.05-1.67-5.18,0-2.24,.57-4.06,1.71-5.46,1.14-1.4,2.62-2.1,4.44-2.1,1.43,0,2.7,.52,3.8,1.57v-2.64c0-1.45,.11-2.41,.32-2.87,.37-.83,1.12-1.25,2.26-1.25s1.87,.42,2.23,1.25c.21,.48,.32,1.44,.32,2.87Zm-7.39,4.7c-.73,0-1.32,.35-1.77,1.06-.44,.71-.67,1.65-.67,2.83s.21,2.1,.64,2.77c.42,.67,1.01,1,1.74,1,1.57,0,2.35-1.27,2.35-3.8s-.76-3.86-2.29-3.86Z"/>
      </g>
      <path class="cls-1" d="M81.67,29.94c0-3.99,3.24-7.23,7.23-7.23,3.63,0,6.6,2.68,7.12,6.17-.02,.36,0,.7,0,1.06h0v57.7c.56,6.46,6.28,11.45,13.05,10.68,6.03-.69,10.38-6.16,10.38-12.22V29.96c0-.25-.06-.48-.07-.73-.47-16.22-13.73-29.23-30.06-29.23-7.36,0-14.1,2.65-19.33,7.04-.04,.03-.08,.03-.12,0C64.63,2.65,57.89,0,50.53,0c-16.63,0-30.11,13.48-30.11,30.11,0,.13,.02,.25,.02,.38,0,.17-.05,.32-.05,.49v55.06c0,6.2,4.52,11.77,10.7,12.31,6.98,.62,12.84-4.87,12.84-11.72V28.79c.59-3.67,3.89-6.42,7.8-6.05s6.53,3.82,6.53,7.63v28.83s0,34.04,0,34.04v9.28c0,.05-.04,.1-.1,.1h-15.27c-6.17,0-11.73,4.51-12.27,10.66-.62,6.96,4.85,12.8,11.68,12.8h15.86c.05,0,.1,.04,.1,.1v16.45c0,6.29,5.1,11.39,11.39,11.39h.61c6.29,0,11.39-5.1,11.39-11.39v-16.45c0-.05,.04-.1,.1-.1h15.85c6.17,0,11.73-4.51,12.27-10.66,.62-6.96-4.85-12.8-11.68-12.8h-16.44c-.05,0-.1-.04-.1-.1V59.21s.01,0,.02,0V30.4"/>
    </g>
  </g>
</svg>